<svg width="295" height="131" viewBox="0 0 295 131" fill="none" xmlns="http://www.w3.org/2000/svg">
<path opacity="0.6" fill-rule="evenodd" clip-rule="evenodd" d="M9.22831 35.4218C1.97093 26.2336 -1.35222 14.665 0.508299 0L1.3048 0.0713813C-0.539396 14.6077 2.75829 26.0132 9.89566 35.0495C17.0373 44.0912 28.0493 50.7939 41.7014 55.8795C69.0219 66.057 106.789 69.7154 144.876 72.746C148.565 73.0396 152.257 73.3272 155.943 73.6144C190.271 76.2889 224.046 78.9203 249.688 85.8677C263.89 89.7157 275.643 94.8987 283.62 102.178C291.61 109.469 295.785 118.839 294.878 131L294.078 130.958C294.973 118.967 290.862 109.781 283.031 102.634C275.186 95.4759 263.581 90.3395 249.442 86.5085C223.89 79.5855 190.209 76.9608 155.856 74.2838C152.176 73.997 148.487 73.7096 144.801 73.4163C106.742 70.3879 68.838 66.7249 41.3768 56.495C27.638 51.377 16.4814 44.6046 9.22831 35.4218Z" fill="#6F8590"/>
</svg>
