<svg width="24" height="24" viewBox="0 0 24 24" fill="none" xmlns="http://www.w3.org/2000/svg">
<path d="M3.60002 1.2002C2.93728 1.2002 2.40002 1.73745 2.40002 2.4002C2.40002 3.06294 2.93728 3.60019 3.60002 3.60019H5.06309L5.42977 5.06689C5.43361 5.08384 5.43782 5.10067 5.44238 5.11734L7.07106 11.632L5.99997 12.7031C4.48805 14.215 5.55885 16.8002 7.69702 16.8002H18C18.6627 16.8002 19.2 16.2629 19.2 15.6002C19.2 14.9375 18.6627 14.4002 18 14.4002L7.69702 14.4002L8.89702 13.2002H16.8C17.2546 13.2002 17.6701 12.9434 17.8733 12.5368L21.4733 5.33685C21.6593 4.96486 21.6395 4.5231 21.4208 4.16932C21.2022 3.81554 20.8159 3.60019 20.4 3.60019H7.53696L7.1642 2.10915C7.03065 1.57495 6.55067 1.2002 6.00002 1.2002H3.60002Z" fill="#6F8590"/>
<path d="M19.2 19.8002C19.2 20.7943 18.3941 21.6002 17.4 21.6002C16.4059 21.6002 15.6 20.7943 15.6 19.8002C15.6 18.8061 16.4059 18.0002 17.4 18.0002C18.3941 18.0002 19.2 18.8061 19.2 19.8002Z" fill="#6F8590"/>
<path d="M7.80002 21.6002C8.79414 21.6002 9.60002 20.7943 9.60002 19.8002C9.60002 18.8061 8.79414 18.0002 7.80002 18.0002C6.80591 18.0002 6.00002 18.8061 6.00002 19.8002C6.00002 20.7943 6.80591 21.6002 7.80002 21.6002Z" fill="#6F8590"/>
</svg>
