<svg width="16" height="16" viewBox="0 0 16 16" fill="none" xmlns="http://www.w3.org/2000/svg">
<path fill-rule="evenodd" clip-rule="evenodd" d="M1.3335 2.00004C1.3335 1.63185 1.63197 1.33337 2.00016 1.33337H3.3335C3.65128 1.33337 3.92489 1.55768 3.98722 1.8693L4.1467 2.66671H14.0002C14.2312 2.66671 14.4458 2.78634 14.5673 2.98289C14.6887 3.17943 14.6998 3.42486 14.5964 3.63152L11.9298 8.96485C11.8169 9.19071 11.586 9.33337 11.3335 9.33337H4.94297L3.60964 10.6667L11.3335 10.6667C12.4381 10.6667 13.3335 11.5621 13.3335 12.6667C13.3335 13.7713 12.4381 14.6667 11.3335 14.6667C10.2289 14.6667 9.3335 13.7713 9.3335 12.6667C9.3335 12.433 9.3736 12.2086 9.4473 12H6.55303C6.62673 12.2086 6.66683 12.433 6.66683 12.6667C6.66683 13.7713 5.7714 14.6667 4.66683 14.6667C3.56226 14.6667 2.66683 13.7713 2.66683 12.6667C2.66683 12.3493 2.74077 12.0492 2.87237 11.7826C2.21963 11.3489 2.02719 10.3635 2.66683 9.7239L3.94314 8.44759L2.78696 2.66671H2.00016C1.63197 2.66671 1.3335 2.36823 1.3335 2.00004ZM5.21337 8.00004H10.9215L12.9215 4.00004H4.41337L5.21337 8.00004ZM4.66683 12C4.29864 12 4.00016 12.2985 4.00016 12.6667C4.00016 13.0349 4.29864 13.3334 4.66683 13.3334C5.03502 13.3334 5.3335 13.0349 5.3335 12.6667C5.3335 12.2985 5.03502 12 4.66683 12ZM11.3335 12C10.9653 12 10.6668 12.2985 10.6668 12.6667C10.6668 13.0349 10.9653 13.3334 11.3335 13.3334C11.7017 13.3334 12.0002 13.0349 12.0002 12.6667C12.0002 12.2985 11.7017 12 11.3335 12Z" fill="#0D73A7"/>
</svg>
