<svg width="48" height="48" viewBox="0 0 48 48" fill="none" xmlns="http://www.w3.org/2000/svg">
<rect x="0.5" y="0.5" width="47" height="47" rx="23.5" fill="#F3F5F7"/>
<path fill-rule="evenodd" clip-rule="evenodd" d="M22.7071 16.2929C23.0976 16.6834 23.0976 17.3166 22.7071 17.7071L17.4142 23L33 23C33.5523 23 34 23.4477 34 24C34 24.5523 33.5523 25 33 25H17.4142L22.7071 30.2929C23.0976 30.6834 23.0976 31.3166 22.7071 31.7071C22.3166 32.0976 21.6834 32.0976 21.2929 31.7071L14.2929 24.7071C13.9024 24.3166 13.9024 23.6834 14.2929 23.2929L21.2929 16.2929C21.6834 15.9024 22.3166 15.9024 22.7071 16.2929Z" fill="#6F8590"/>
<rect x="0.5" y="0.5" width="47" height="47" rx="23.5" stroke="#E6EBEF"/>
</svg>
