<svg width="20" height="20" viewBox="0 0 20 20" fill="none" xmlns="http://www.w3.org/2000/svg">
<path fill-rule="evenodd" clip-rule="evenodd" d="M1.66671 5.83325C1.66671 4.45254 2.786 3.33325 4.16671 3.33325H15.8334C17.2141 3.33325 18.3334 4.45254 18.3334 5.83325V6.65365C18.3335 6.66177 18.3335 6.66988 18.3334 6.67798V14.1666C18.3334 15.5473 17.2141 16.6666 15.8334 16.6666H4.16671C2.786 16.6666 1.66671 15.5473 1.66671 14.1666V6.67798C1.6666 6.66988 1.6666 6.66177 1.66671 6.65366V5.83325ZM3.33338 8.22368V14.1666C3.33338 14.6268 3.70648 14.9999 4.16671 14.9999H15.8334C16.2936 14.9999 16.6667 14.6268 16.6667 14.1666V8.22368L11.3868 11.7436C10.5471 12.3035 9.45305 12.3035 8.6133 11.7436L3.33338 8.22368ZM16.6667 6.2206L10.4623 10.3569C10.1824 10.5435 9.81771 10.5435 9.5378 10.3569L3.33338 6.2206V5.83325C3.33338 5.37301 3.70648 4.99992 4.16671 4.99992H15.8334C16.2936 4.99992 16.6667 5.37301 16.6667 5.83325V6.2206Z" fill="#6F8590"/>
</svg>
