<svg width="48" height="48" viewBox="0 0 48 48" fill="none" xmlns="http://www.w3.org/2000/svg">
<rect x="-0.5" y="0.5" width="47" height="47" rx="23.5" transform="matrix(-1 0 0 1 47 0)" fill="#F3F5F7"/>
<path fill-rule="evenodd" clip-rule="evenodd" d="M25.2929 16.2929C24.9024 16.6834 24.9024 17.3166 25.2929 17.7071L30.5858 23L15 23C14.4477 23 14 23.4477 14 24C14 24.5523 14.4477 25 15 25H30.5858L25.2929 30.2929C24.9024 30.6834 24.9024 31.3166 25.2929 31.7071C25.6834 32.0976 26.3166 32.0976 26.7071 31.7071L33.7071 24.7071C34.0976 24.3166 34.0976 23.6834 33.7071 23.2929L26.7071 16.2929C26.3166 15.9024 25.6834 15.9024 25.2929 16.2929Z" fill="#6F8590"/>
<rect x="-0.5" y="0.5" width="47" height="47" rx="23.5" transform="matrix(-1 0 0 1 47 0)" stroke="#E6EBEF"/>
</svg>
