<svg width="119" height="32" viewBox="0 0 119 32" fill="none" xmlns="http://www.w3.org/2000/svg">
<path fill-rule="evenodd" clip-rule="evenodd" d="M1.31059 12.6952C0.94293 12.6952 0.628507 12.8321 0.377162 13.1007C0.125852 13.3522 0 13.6643 0 14.0268V30.5665C0 30.9299 0.12655 31.2428 0.379254 31.4946C0.631958 31.7465 0.945866 31.8726 1.31059 31.8726C1.6743 31.8726 1.98748 31.7472 2.23982 31.4967C2.50943 31.2462 2.64675 30.9329 2.64675 30.5665V30.2861C3.8582 31.4255 5.26432 32 6.8598 32C7.94481 32 8.96911 31.7293 9.93025 31.1894L9.93107 31.189C10.9124 30.6302 11.6994 29.8273 12.2922 28.7849C12.9046 27.7211 13.2082 26.4868 13.2082 25.0872C13.2082 23.6882 12.9048 22.4622 12.2921 21.415C11.6997 20.3563 10.9128 19.5529 9.93069 19.0107C8.96972 18.4539 7.94525 18.1745 6.8598 18.1745C5.26432 18.1745 3.8582 18.7489 2.64675 19.8883V14.0268C2.64675 13.6488 2.52188 13.3267 2.26749 13.0732C2.01311 12.8197 1.68984 12.6952 1.31059 12.6952ZM50.4776 12.6952C50.1099 12.6952 49.7955 12.8321 49.5441 13.1008C49.2928 13.3522 49.167 13.6643 49.167 14.0268V30.5665C49.167 30.9299 49.2935 31.2428 49.5462 31.4946C49.7989 31.7465 50.1129 31.8726 50.4776 31.8726C50.8413 31.8726 51.1544 31.7472 51.4068 31.4967C51.6764 31.2463 51.8137 30.9329 51.8137 30.5665V27.3494L53.8549 25.5023L58.1483 31.3235L58.151 31.3269C58.2847 31.4982 58.4481 31.6325 58.6404 31.7283C58.8304 31.823 59.0252 31.8726 59.2233 31.8726C59.5988 31.8726 59.9206 31.7591 60.1756 31.5245C60.4345 31.2864 60.5595 30.9698 60.5595 30.592C60.5595 30.3134 60.4589 30.0509 60.271 29.8073L60.2706 29.8068L55.7314 23.8085L59.3046 20.6188L59.3108 20.6126C59.618 20.3064 59.7923 19.9794 59.7923 19.6335C59.7923 19.2936 59.6874 18.9941 59.4756 18.7433C59.2638 18.4713 58.9264 18.3529 58.5073 18.3529C58.2022 18.3529 57.9107 18.4853 57.6354 18.723L51.8137 24.086V14.0268C51.8137 13.6614 51.6771 13.3487 51.409 13.0986C51.158 12.8313 50.8442 12.6952 50.4776 12.6952ZM22.6855 18.1745C21.3494 18.1745 20.1706 18.46 19.1542 19.0363C18.1379 19.6126 17.3495 20.4339 16.7902 21.4963L16.7897 21.4972C16.2478 22.5425 15.9792 23.7405 15.9792 25.0872C15.9792 26.434 16.2478 27.6401 16.7892 28.7018L16.7907 28.7046C17.3502 29.75 18.1386 30.5623 19.1542 31.1382C20.1706 31.7145 21.3494 32 22.6855 32C24.005 32 25.1752 31.7143 26.1913 31.1382C27.2069 30.5623 27.9953 29.75 28.5548 28.7046L28.5553 28.7036C29.1144 27.6415 29.3919 26.4348 29.3919 25.0872C29.3919 23.7399 29.1144 22.5413 28.555 21.4957C27.9957 20.4336 27.2074 19.6124 26.1913 19.0363C25.1752 18.4602 24.005 18.1745 22.6855 18.1745ZM38.8831 18.1745C37.547 18.1745 36.3681 18.46 35.3518 19.0363C34.3355 19.6126 33.547 20.4339 32.9877 21.4963L32.9873 21.4972C32.4454 22.5425 32.1767 23.7405 32.1767 25.0872C32.1767 26.434 32.4454 27.6401 32.9868 28.7018L32.9883 28.7046C33.5477 29.75 34.3362 30.5623 35.3518 31.1382C36.3681 31.7145 37.547 32 38.8831 32C40.2025 32 41.3727 31.7143 42.3888 31.1382C43.4044 30.5623 44.1928 29.75 44.7523 28.7046L44.7528 28.7036C45.3119 27.6415 45.5894 26.4348 45.5894 25.0872C45.5894 23.74 45.312 22.5415 44.7527 21.496C44.1934 20.4337 43.405 19.6125 42.3888 19.0363C41.3727 18.4602 40.2025 18.1745 38.8831 18.1745ZM44.6113 21.5703L44.7523 21.4954L44.7527 21.496L44.6113 21.5703ZM67.9957 18.1745C66.3699 18.1745 65.0914 18.5536 64.1833 19.3345L64.1821 19.3355C63.2933 20.115 62.8492 21.1279 62.8492 22.3604C62.8492 23.2396 63.0881 23.9677 63.5789 24.5293L63.5827 24.5333C64.0761 25.0602 64.6586 25.456 65.3286 25.7196L65.3299 25.7201C66.0034 25.9782 66.8456 26.2264 67.8549 26.4651C68.8416 26.7195 69.5357 26.9456 69.9467 27.1422L69.9489 27.1432C70.1536 27.2374 70.2956 27.3479 70.3863 27.4695C70.4754 27.5891 70.521 27.7274 70.521 27.8906C70.521 28.4444 70.3081 28.8438 69.885 29.1135C69.4498 29.3909 68.7765 29.5407 67.8422 29.5407C67.1707 29.5407 66.5703 29.4738 66.0398 29.3416C65.5035 29.208 64.9664 29.0241 64.4287 28.7896C64.2569 28.7136 64.0817 28.6742 63.9041 28.6742C63.5717 28.6742 63.2895 28.7933 63.0702 29.0317C62.8562 29.2644 62.7469 29.5404 62.7469 29.8529C62.7469 30.2609 62.9166 30.59 63.2493 30.824L63.2567 30.8292L63.2646 30.8335C64.6878 31.6119 66.2659 32 67.9957 32C69.5861 32 70.8381 31.6384 71.7291 30.8929C72.6337 30.1502 73.091 29.2054 73.091 28.069C73.091 27.1582 72.8534 26.4129 72.3622 25.8503C71.9024 25.3042 71.3438 24.9062 70.688 24.6586C70.0482 24.4002 69.2228 24.1435 68.2141 23.8879L68.2091 23.8868C67.2065 23.6667 66.4806 23.4406 66.0214 23.2118C65.8034 23.1032 65.6486 22.9681 65.5477 22.81C65.447 22.6524 65.3937 22.4621 65.3937 22.2329C65.3937 21.7696 65.6134 21.3919 66.0866 21.0932L66.0877 21.0925C66.581 20.7754 67.2714 20.6083 68.1747 20.6083C69.112 20.6083 70.0677 20.7586 71.0425 21.0601L71.0512 21.0622C71.1932 21.0976 71.3184 21.118 71.4224 21.118C71.7536 21.118 72.0349 20.9998 72.2539 20.763C72.4848 20.5318 72.6051 20.255 72.6051 19.9393C72.6051 19.6989 72.5245 19.4726 72.3728 19.2634C72.231 19.0437 72.0205 18.8967 71.7534 18.8194C70.577 18.3891 69.324 18.1745 67.9957 18.1745ZM20.7112 21.0757C21.3371 20.7638 21.9946 20.6083 22.6855 20.6083C23.3587 20.6083 23.9986 20.7635 24.6071 21.075L24.6118 21.0771C25.2269 21.3675 25.7326 21.8446 26.1277 22.5173L26.1292 22.5197C26.5363 23.185 26.7452 24.0293 26.7452 25.0617C26.7452 26.1118 26.5361 26.9643 26.1292 27.6292L26.1277 27.6317C25.7323 28.3049 25.2256 28.7914 24.6087 29.0988L24.6072 29.0996C23.9986 29.411 23.3587 29.5662 22.6855 29.5662C21.9949 29.5662 21.3376 29.4108 20.7119 29.0992C20.1123 28.7921 19.6136 28.3057 19.2178 27.6317C18.8269 26.9662 18.6259 26.1128 18.6259 25.0617C18.6259 24.0282 18.8267 23.1831 19.2178 22.5173C19.6135 21.8435 20.1115 21.3664 20.7097 21.0764L20.7112 21.0757ZM36.9088 21.0757C37.5347 20.7638 38.1922 20.6083 38.8831 20.6083C39.5563 20.6083 40.1961 20.7635 40.8047 21.075L40.8093 21.0771C41.4244 21.3675 41.9302 21.8446 42.3253 22.5173L42.3267 22.5197C42.7338 23.185 42.9427 24.0293 42.9427 25.0617C42.9427 26.1118 42.7336 26.9643 42.3267 27.6292L42.3253 27.6317C41.9299 28.3049 41.4232 28.7914 40.8062 29.0988L40.8047 29.0996C40.1962 29.411 39.5563 29.5662 38.8831 29.5662C38.1924 29.5662 37.5352 29.4108 36.9095 29.0992C36.3098 28.7921 35.8112 28.3057 35.4153 27.6317C35.0244 26.9662 34.8235 26.1128 34.8235 25.0617C34.8235 24.0282 35.0242 23.1831 35.4153 22.5173C35.811 21.8435 36.309 21.3664 36.9072 21.0764L36.9088 21.0757ZM4.37542 21.1769C5.05188 20.8316 5.76851 20.6592 6.52736 20.6592C7.7519 20.6592 8.72226 21.0452 9.45504 21.8079C10.1855 22.5682 10.5614 23.6536 10.5614 25.0872C10.5614 26.5209 10.1855 27.6062 9.45504 28.3666C8.72226 29.1293 7.7519 29.5152 6.52736 29.5152C5.76801 29.5152 5.05111 29.3511 4.37477 29.0227C3.72831 28.6842 3.15243 28.2439 2.64675 27.701V22.4735C3.1524 21.9311 3.72803 21.4995 4.37404 21.1776L4.37542 21.1769Z" fill="#19272E"/>
<path d="M114.535 0H83.2546C80.8439 0 78.8448 1.9728 78.8448 4.35177V32L84.9304 26.0526H114.565C116.975 26.0526 118.974 24.0798 118.974 21.7008V4.35177C118.945 1.94379 116.975 0 114.535 0Z" fill="#019D52"/>
<path d="M108.773 10.0961C112.124 10.0961 113.653 12.7362 113.653 15.1732C113.653 15.8404 113.153 16.3046 112.477 16.3046H106.303C106.597 17.7842 107.656 18.5675 109.331 18.5675C110.537 18.5675 111.213 18.3064 111.801 18.0163C111.948 17.9293 112.095 17.9003 112.271 17.9003C112.859 17.9003 113.33 18.3645 113.33 18.9447C113.33 19.3218 113.095 19.67 112.683 19.9021C111.86 20.3663 110.978 20.7724 109.155 20.7724C105.862 20.7724 103.863 18.7706 103.863 15.4343C103.863 11.5177 106.509 10.0961 108.773 10.0961ZM98.9537 8.38441C99.3359 8.38441 99.6004 8.67452 99.6004 9.05168V10.2702H101.482C102.07 10.2702 102.54 10.7344 102.54 11.3146C102.54 11.8948 102.07 12.359 101.482 12.359H99.6298V17.8132C99.6298 18.5966 100.041 18.6546 100.6 18.6546C100.923 18.6546 101.1 18.5966 101.276 18.5675C101.423 18.5385 101.57 18.4805 101.747 18.4805C102.217 18.4805 102.746 18.8577 102.746 19.4669C102.717 19.8441 102.511 20.1922 102.129 20.3663C101.57 20.6274 101.012 20.7434 100.394 20.7434C98.3657 20.7434 97.2779 19.786 97.2779 17.9583V12.359H96.2196C95.8374 12.359 95.5728 12.0689 95.5728 11.7208C95.5728 11.5177 95.661 11.3146 95.8374 11.1695L98.4245 8.64551C98.4833 8.58749 98.6891 8.38441 98.9537 8.38441ZM87.0471 6.00544C87.6939 6.00544 88.223 6.52765 88.223 7.16591V19.4959C88.223 20.1342 87.6939 20.6274 87.0471 20.6274C86.4003 20.6274 85.9005 20.1052 85.9005 19.4959V7.16591C85.9005 6.52765 86.4003 6.00544 87.0471 6.00544ZM92.5153 10.1831C93.1621 10.1831 93.6913 10.7053 93.6913 11.3436V19.4959C93.6913 20.1342 93.1621 20.6274 92.5153 20.6274C91.8685 20.6274 91.3687 20.1052 91.3687 19.4959V11.3436C91.3687 10.7053 91.8685 10.1831 92.5153 10.1831ZM108.802 12.1559C107.685 12.1559 106.509 12.8232 106.303 14.3608H111.331C111.095 12.8232 109.919 12.1559 108.802 12.1559ZM92.5741 6.29556C93.2797 6.29556 93.8383 6.84678 93.8383 7.54306V7.6301C93.8383 8.32638 93.2797 8.87761 92.5741 8.87761H92.4565C91.7509 8.87761 91.1923 8.32638 91.1923 7.6301V7.54306C91.1923 6.84678 91.7509 6.29556 92.4565 6.29556H92.5741Z" fill="white"/>
</svg>
